name Run_500 03_newCOP3_v24.mot
datacolumns 19
datarows 40
range 0.08 0.09950000000000001
DataType=double
version=3
OpenSimVersion=4.3-2021-08-27-4bc7ad9
endheader
time	R_ground_force_vx	R_ground_force_vy	R_ground_force_vz	R_ground_force_px	R_ground_force_py	R_ground_force_pz	L_ground_force_vx	L_ground_force_vy	L_ground_force_vz	L_ground_force_px	L_ground_force_py	L_ground_force_pz	R_ground_torque_x	R_ground_torque_y	R_ground_torque_z	L_ground_torque_x	L_ground_torque_y	L_ground_torque_z
0.08	0	0	0	0	0	0	-7.435411	1310.459473	143.137161	1.024679	0	-0.321926	0	0	0	0	-16.303316	0
0.0805	0	0	0	0	0	0	-10.887573	1317.910278	140.231384	1.022819	0	-0.322393	0	0	0	0	-15.37307	0
0.081	0	0	0	0	0	0	-14.479453	1325.646851	137.218979	1.020903	0	-0.322871	0	0	0	0	-14.445455	0
0.0815	0	0	0	0	0	0	-18.199648	1333.641968	134.104675	1.018937	0	-0.323356	0	0	0	0	-13.520944	0
0.082	0	0	0	0	0	0	-22.036648	1341.868164	130.893402	1.016929	0	-0.323847	0	0	0	0	-12.600006	0
0.0825	0	0	0	0	0	0	-25.978806	1350.29834	127.590324	1.014884	0	-0.324341	0	0	0	0	-11.683111	0
0.083	0	0	0	0	0	0	-30.014324	1358.905396	124.200813	1.012811	0	-0.324836	0	0	0	0	-10.770726	0
0.0835	0	0	0	0	0	0	-34.131264	1367.663086	120.730385	1.010713	0	-0.32533	0	0	0	0	-9.863318	0
0.08400000000000001	0	0	0	0	0	0	-38.317554	1376.545044	117.1847	1.008597	0	-0.325821	0	0	0	0	-8.961349	0
0.08450000000000001	0	0	0	0	0	0	-42.561001	1385.526001	113.569527	1.006467	0	-0.326307	0	0	0	0	-8.065281000000001	0
0.08500000000000001	0	0	0	0	0	0	-46.849342	1394.581177	109.890739	1.004328	0	-0.326786	0	0	0	0	-7.17557	0
0.08550000000000001	0	0	0	0	0	0	-51.170258	1403.686646	106.154274	1.002185	0	-0.327256	0	0	0	0	-6.292671	0
0.08599999999999999	0	0	0	0	0	0	-55.511433	1412.819702	102.366135	1.00004	0	-0.327717	0	0	0	0	-5.417032	0
0.08649999999999999	0	0	0	0	0	0	-59.860577	1421.958374	98.532349	0.997898	0	-0.328167	0	0	0	0	-4.549098	0
0.08699999999999999	0	0	0	0	0	0	-64.205505	1431.082153	94.65896600000001	0.995761	0	-0.328605	0	0	0	0	-3.689308	0
0.08749999999999999	0	0	0	0	0	0	-68.53415699999999	1440.171509	90.75202899999999	0.993631	0	-0.329029	0	0	0	0	-2.838097	0
0.08799999999999999	0	0	0	0	0	0	-72.83467899999999	1449.208496	86.817566	0.991511	0	-0.32944	0	0	0	0	-1.995891	0
0.0885	0	0	0	0	0	0	-77.095444	1458.17627	82.861572	0.989402	0	-0.329836	0	0	0	0	-1.163113	0
0.089	0	0	0	0	0	0	-81.305138	1467.059814	78.890007	0.987306	0	-0.330216	0	0	0	0	-0.340174	0
0.0895	0	0	0	0	0	0	-85.452797	1475.845093	74.908737	0.985224	0	-0.33058	0	0	0	-0	0.472516	-0
0.09	0	0	0	0	0	0	-89.52784	1484.519897	70.92358400000001	0.9831569999999999	0	-0.330928	0	0	0	-0	1.274561	-0
0.0905	0	0	0	0	0	0	-93.520149	1493.073242	66.940262	0.981106	0	-0.33126	0	0	0	-0	2.06557	-0
0.091	0	0	0	0	0	0	-97.42009	1501.49585	62.96439	0.979071	0	-0.331574	0	0	0	-0	2.84516	-0
0.0915	0	0	0	0	0	0	-101.218559	1509.779785	59.001461	0.977051	0	-0.331872	0	0	0	-0	3.61296	-0
0.092	0	0	0	0	0	0	-104.907013	1517.918457	55.056854	0.975048	0	-0.332153	0	0	0	-0	4.368607	-0
0.0925	0	0	0	0	0	0	-108.477516	1525.906616	51.135811	0.97306	0	-0.332417	0	0	0	-0	5.111748	-0
0.093	0	0	0	0	0	0	-111.922737	1533.740601	47.243427	0.971088	0	-0.332665	0	0	0	-0	5.842039	-0
0.0935	0	0	0	0	0	0	-115.236008	1541.417725	43.384636	0.96913	0	-0.332896	0	0	0	-0	6.559148	-0
0.094	0	0	0	0	0	0	-118.411278	1548.936768	39.564217	0.967187	0	-0.333111	0	0	0	-0	7.262755	-0
0.0945	0	0	0	0	0	0	-121.443199	1556.297363	35.786777	0.9652579999999999	0	-0.33331	0	0	0	-0	7.952549	-0
0.095	0	0	0	0	0	0	-124.327065	1563.500244	32.05674	0.963342	0	-0.333494	0	0	0	-0	8.628233	-0
0.0955	0	0	0	0	0	0	-127.058823	1570.547241	28.378345	0.961438	0	-0.333663	0	0	0	-0	9.289517999999999	-0
0.096	0	0	0	0	0	0	-129.635086	1577.440918	24.75565	0.959546	0	-0.333817	0	0	0	-0	9.936132000000001	-0
0.0965	0	0	0	0	0	0	-132.05307	1584.184814	21.192511	0.957664	0	-0.333958	0	0	0	-0	10.567814	-0
0.097	0	0	0	0	0	0	-134.310669	1590.782837	17.692581	0.955792	0	-0.334084	0	0	0	-0	11.184313	-0
0.0975	0	0	0	0	0	0	-136.406296	1597.239868	14.259316	0.953929	0	-0.334198	0	0	0	-0	11.785393	-0
0.098	0	0	0	0	0	0	-138.338989	1603.560913	10.895964	0.952074	0	-0.334299	0	0	0	-0	12.370832	-0
0.0985	0	0	0	0	0	0	-140.108276	1609.751709	7.60556	0.950226	0	-0.334389	0	0	0	-0	12.94042	-0
0.099	0	0	0	0	0	0	-141.714233	1615.817993	4.390931	0.948385	0	-0.334467	0	0	0	-0	13.493962	-0
0.09950000000000001	0	0	0	0	0	0	-143.157349	1621.766113	1.254691	0.946549	0	-0.334534	0	0	0	-0	14.031276	-0
